<mxfile host="app.diagrams.net" modified="2021-12-22T07:21:51.639Z" agent="5.0 (Windows)" etag="YmFW5KEC2cSvl6tiYGww" version="16.0.2" type="github">
  <diagram id="kgpKYQtTHZ0yAKxKKP6v" name="Page-1">
    <mxGraphModel dx="1038" dy="536" grid="1" gridSize="10" guides="1" tooltips="1" connect="1" arrows="1" fold="1" page="1" pageScale="1" pageWidth="850" pageHeight="1100" math="0" shadow="0">
      <root>
        <mxCell id="0" />
        <mxCell id="1" parent="0" />
        <mxCell id="7puuVnWby1s3PZwzZjGk-1" value="" style="group" parent="1" vertex="1" connectable="0">
          <mxGeometry x="79.99974596215564" y="150" width="48.66038105676654" height="89.82050807568879" as="geometry" />
        </mxCell>
        <mxCell id="7puuVnWby1s3PZwzZjGk-2" value="" style="ellipse;whiteSpace=wrap;html=1;aspect=fixed;fillColor=none;" parent="7puuVnWby1s3PZwzZjGk-1" vertex="1">
          <mxGeometry x="14.330254037844355" width="20" height="20" as="geometry" />
        </mxCell>
        <mxCell id="7puuVnWby1s3PZwzZjGk-3" value="" style="line;strokeWidth=1;direction=south;html=1;fillColor=none;" parent="7puuVnWby1s3PZwzZjGk-1" vertex="1">
          <mxGeometry x="19.330254037844355" y="20" width="10" height="30" as="geometry" />
        </mxCell>
        <mxCell id="7puuVnWby1s3PZwzZjGk-4" value="" style="line;strokeWidth=1;direction=south;html=1;fillColor=none;rotation=30;" parent="7puuVnWby1s3PZwzZjGk-1" vertex="1">
          <mxGeometry x="9.330254037844355" y="50" width="10" height="40" as="geometry" />
        </mxCell>
        <mxCell id="7puuVnWby1s3PZwzZjGk-5" value="" style="line;strokeWidth=1;direction=south;html=1;fillColor=none;rotation=-30;" parent="7puuVnWby1s3PZwzZjGk-1" vertex="1">
          <mxGeometry x="29.330254037844355" y="50" width="10" height="40" as="geometry" />
        </mxCell>
        <mxCell id="7puuVnWby1s3PZwzZjGk-6" value="" style="line;strokeWidth=1;direction=south;html=1;fillColor=none;rotation=-150;" parent="7puuVnWby1s3PZwzZjGk-1" vertex="1">
          <mxGeometry x="29.330127018922184" y="-0.0005080756887991811" width="10" height="40" as="geometry" />
        </mxCell>
        <mxCell id="7puuVnWby1s3PZwzZjGk-7" value="" style="line;strokeWidth=1;direction=south;html=1;fillColor=none;rotation=-210;" parent="7puuVnWby1s3PZwzZjGk-1" vertex="1">
          <mxGeometry x="9.330127018922184" y="-0.0005080756887991811" width="10" height="40" as="geometry" />
        </mxCell>
        <mxCell id="7puuVnWby1s3PZwzZjGk-8" value="" style="whiteSpace=wrap;html=1;aspect=fixed;strokeWidth=1;fillColor=none;" parent="1" vertex="1">
          <mxGeometry x="240" y="154.91" width="80" height="80" as="geometry" />
        </mxCell>
        <mxCell id="7puuVnWby1s3PZwzZjGk-9" value="" style="whiteSpace=wrap;html=1;aspect=fixed;strokeWidth=1;fillColor=none;" parent="1" vertex="1">
          <mxGeometry x="440" y="150" width="80" height="80" as="geometry" />
        </mxCell>
        <mxCell id="7puuVnWby1s3PZwzZjGk-10" value="" style="whiteSpace=wrap;html=1;aspect=fixed;strokeWidth=1;fillColor=none;" parent="1" vertex="1">
          <mxGeometry x="660" y="154.91" width="80" height="80" as="geometry" />
        </mxCell>
        <mxCell id="7puuVnWby1s3PZwzZjGk-11" value="" style="endArrow=none;dashed=1;html=1;dashPattern=1 3;strokeWidth=2;rounded=0;" parent="1" edge="1">
          <mxGeometry width="50" height="50" relative="1" as="geometry">
            <mxPoint x="104.00000000000023" y="700" as="sourcePoint" />
            <mxPoint x="103.82999999999993" y="239.81999999999994" as="targetPoint" />
          </mxGeometry>
        </mxCell>
        <mxCell id="7puuVnWby1s3PZwzZjGk-12" value="" style="endArrow=none;dashed=1;html=1;dashPattern=1 3;strokeWidth=2;rounded=0;startArrow=none;" parent="1" edge="1">
          <mxGeometry width="50" height="50" relative="1" as="geometry">
            <mxPoint x="279.5785990760394" y="247.5" as="sourcePoint" />
            <mxPoint x="279.5" y="234.90999999999985" as="targetPoint" />
          </mxGeometry>
        </mxCell>
        <mxCell id="7puuVnWby1s3PZwzZjGk-13" value="" style="endArrow=none;dashed=1;html=1;dashPattern=1 3;strokeWidth=2;rounded=0;startArrow=none;" parent="1" edge="1">
          <mxGeometry width="50" height="50" relative="1" as="geometry">
            <mxPoint x="480" y="700" as="sourcePoint" />
            <mxPoint x="479.5" y="230" as="targetPoint" />
          </mxGeometry>
        </mxCell>
        <mxCell id="7puuVnWby1s3PZwzZjGk-14" value="" style="endArrow=none;dashed=1;html=1;dashPattern=1 3;strokeWidth=2;rounded=0;startArrow=none;" parent="1" edge="1">
          <mxGeometry width="50" height="50" relative="1" as="geometry">
            <mxPoint x="700" y="690" as="sourcePoint" />
            <mxPoint x="699.5" y="234.90999999999985" as="targetPoint" />
          </mxGeometry>
        </mxCell>
        <mxCell id="7puuVnWby1s3PZwzZjGk-15" value="Total Health&lt;br&gt;&amp;nbsp;App" style="text;html=1;resizable=0;autosize=1;align=center;verticalAlign=middle;points=[];fillColor=none;strokeColor=none;rounded=0;" parent="1" vertex="1">
          <mxGeometry x="240" y="179.90999999999997" width="80" height="30" as="geometry" />
        </mxCell>
        <mxCell id="7puuVnWby1s3PZwzZjGk-16" value="Server" style="text;html=1;resizable=0;autosize=1;align=center;verticalAlign=middle;points=[];fillColor=none;strokeColor=none;rounded=0;" parent="1" vertex="1">
          <mxGeometry x="455" y="180" width="50" height="20" as="geometry" />
        </mxCell>
        <mxCell id="7puuVnWby1s3PZwzZjGk-17" value="Total Health&amp;nbsp;&lt;br&gt;Database" style="text;html=1;resizable=0;autosize=1;align=center;verticalAlign=middle;points=[];fillColor=none;strokeColor=none;rounded=0;" parent="1" vertex="1">
          <mxGeometry x="660" y="179.90999999999997" width="80" height="30" as="geometry" />
        </mxCell>
        <mxCell id="7puuVnWby1s3PZwzZjGk-18" value="User" style="text;html=1;resizable=0;autosize=1;align=center;verticalAlign=middle;points=[];fillColor=none;strokeColor=none;rounded=0;" parent="1" vertex="1">
          <mxGeometry x="84.33" y="120" width="40" height="20" as="geometry" />
        </mxCell>
        <mxCell id="7puuVnWby1s3PZwzZjGk-19" value="" style="endArrow=classic;html=1;rounded=0;" parent="1" edge="1">
          <mxGeometry relative="1" as="geometry">
            <mxPoint x="110" y="260" as="sourcePoint" />
            <mxPoint x="280" y="260" as="targetPoint" />
          </mxGeometry>
        </mxCell>
        <mxCell id="7puuVnWby1s3PZwzZjGk-20" value="Select Exercise Tab" style="edgeLabel;resizable=0;html=1;align=center;verticalAlign=middle;strokeWidth=1;fillColor=none;" parent="7puuVnWby1s3PZwzZjGk-19" connectable="0" vertex="1">
          <mxGeometry relative="1" as="geometry">
            <mxPoint x="1" as="offset" />
          </mxGeometry>
        </mxCell>
        <mxCell id="7puuVnWby1s3PZwzZjGk-21" value="" style="endArrow=classic;html=1;rounded=0;dashed=1;" parent="1" edge="1">
          <mxGeometry relative="1" as="geometry">
            <mxPoint x="280" y="310" as="sourcePoint" />
            <mxPoint x="100" y="310" as="targetPoint" />
          </mxGeometry>
        </mxCell>
        <mxCell id="7puuVnWby1s3PZwzZjGk-22" value="Display Exercise Screen" style="edgeLabel;resizable=0;html=1;align=center;verticalAlign=middle;strokeWidth=1;fillColor=none;" parent="7puuVnWby1s3PZwzZjGk-21" connectable="0" vertex="1">
          <mxGeometry relative="1" as="geometry">
            <mxPoint x="1" as="offset" />
          </mxGeometry>
        </mxCell>
        <mxCell id="7puuVnWby1s3PZwzZjGk-23" value="" style="endArrow=none;dashed=1;html=1;dashPattern=1 3;strokeWidth=2;rounded=0;" parent="1" edge="1">
          <mxGeometry width="50" height="50" relative="1" as="geometry">
            <mxPoint x="280" y="700" as="sourcePoint" />
            <mxPoint x="280" y="290" as="targetPoint" />
          </mxGeometry>
        </mxCell>
        <mxCell id="7puuVnWby1s3PZwzZjGk-24" value="" style="endArrow=none;dashed=1;html=1;dashPattern=1 3;strokeWidth=2;rounded=0;startArrow=none;" parent="1" edge="1">
          <mxGeometry width="50" height="50" relative="1" as="geometry">
            <mxPoint x="279.6720594665501" y="290" as="sourcePoint" />
            <mxPoint x="279.1145605596853" y="247.5" as="targetPoint" />
          </mxGeometry>
        </mxCell>
        <mxCell id="7puuVnWby1s3PZwzZjGk-25" value="&lt;font style=&quot;font-size: 18px&quot;&gt;Use Stopwatch&lt;/font&gt;" style="text;html=1;resizable=0;autosize=1;align=center;verticalAlign=middle;points=[];fillColor=none;strokeColor=none;rounded=0;" parent="1" vertex="1">
          <mxGeometry x="355" y="60" width="140" height="20" as="geometry" />
        </mxCell>
        <mxCell id="7puuVnWby1s3PZwzZjGk-26" value="" style="endArrow=classic;html=1;rounded=0;dashed=1;" parent="1" edge="1">
          <mxGeometry relative="1" as="geometry">
            <mxPoint x="700" y="270" as="sourcePoint" />
            <mxPoint x="480" y="270" as="targetPoint" />
          </mxGeometry>
        </mxCell>
        <mxCell id="7puuVnWby1s3PZwzZjGk-27" value="User Specific Exercises" style="edgeLabel;resizable=0;html=1;align=center;verticalAlign=middle;strokeWidth=1;fillColor=none;" parent="7puuVnWby1s3PZwzZjGk-26" connectable="0" vertex="1">
          <mxGeometry relative="1" as="geometry">
            <mxPoint x="1" as="offset" />
          </mxGeometry>
        </mxCell>
        <mxCell id="7puuVnWby1s3PZwzZjGk-28" value="" style="endArrow=classic;html=1;rounded=0;dashed=1;" parent="1" edge="1">
          <mxGeometry relative="1" as="geometry">
            <mxPoint x="480" y="290" as="sourcePoint" />
            <mxPoint x="290" y="290" as="targetPoint" />
          </mxGeometry>
        </mxCell>
        <mxCell id="7puuVnWby1s3PZwzZjGk-29" value="User Specific Exercises" style="edgeLabel;resizable=0;html=1;align=center;verticalAlign=middle;strokeWidth=1;fillColor=none;" parent="7puuVnWby1s3PZwzZjGk-28" connectable="0" vertex="1">
          <mxGeometry relative="1" as="geometry">
            <mxPoint x="1" as="offset" />
          </mxGeometry>
        </mxCell>
        <mxCell id="7puuVnWby1s3PZwzZjGk-30" value="" style="endArrow=classic;html=1;rounded=0;" parent="1" edge="1">
          <mxGeometry relative="1" as="geometry">
            <mxPoint x="110" y="350" as="sourcePoint" />
            <mxPoint x="280" y="350" as="targetPoint" />
          </mxGeometry>
        </mxCell>
        <mxCell id="7puuVnWby1s3PZwzZjGk-31" value="Click Exercise Button" style="edgeLabel;resizable=0;html=1;align=center;verticalAlign=middle;strokeWidth=1;fillColor=none;" parent="7puuVnWby1s3PZwzZjGk-30" connectable="0" vertex="1">
          <mxGeometry relative="1" as="geometry">
            <mxPoint x="1" as="offset" />
          </mxGeometry>
        </mxCell>
        <mxCell id="7puuVnWby1s3PZwzZjGk-32" value="" style="endArrow=classic;html=1;rounded=0;" parent="1" edge="1">
          <mxGeometry relative="1" as="geometry">
            <mxPoint x="110" y="410" as="sourcePoint" />
            <mxPoint x="280" y="410" as="targetPoint" />
          </mxGeometry>
        </mxCell>
        <mxCell id="7puuVnWby1s3PZwzZjGk-33" value="Select Stopwatch Tab" style="edgeLabel;resizable=0;html=1;align=center;verticalAlign=middle;strokeWidth=1;fillColor=none;" parent="7puuVnWby1s3PZwzZjGk-32" connectable="0" vertex="1">
          <mxGeometry relative="1" as="geometry">
            <mxPoint x="1" as="offset" />
          </mxGeometry>
        </mxCell>
        <mxCell id="7puuVnWby1s3PZwzZjGk-34" value="" style="endArrow=classic;html=1;rounded=0;" parent="1" edge="1">
          <mxGeometry relative="1" as="geometry">
            <mxPoint x="110" y="480" as="sourcePoint" />
            <mxPoint x="280" y="480" as="targetPoint" />
          </mxGeometry>
        </mxCell>
        <mxCell id="7puuVnWby1s3PZwzZjGk-35" value="Start Stopwatch" style="edgeLabel;resizable=0;html=1;align=center;verticalAlign=middle;strokeWidth=1;fillColor=none;" parent="7puuVnWby1s3PZwzZjGk-34" connectable="0" vertex="1">
          <mxGeometry relative="1" as="geometry">
            <mxPoint x="1" as="offset" />
          </mxGeometry>
        </mxCell>
        <mxCell id="7puuVnWby1s3PZwzZjGk-36" value="" style="endArrow=classic;html=1;rounded=0;" parent="1" edge="1">
          <mxGeometry relative="1" as="geometry">
            <mxPoint x="110" y="549" as="sourcePoint" />
            <mxPoint x="280" y="549" as="targetPoint" />
          </mxGeometry>
        </mxCell>
        <mxCell id="7puuVnWby1s3PZwzZjGk-37" value="Stop Stopwatch" style="edgeLabel;resizable=0;html=1;align=center;verticalAlign=middle;strokeWidth=1;fillColor=none;" parent="7puuVnWby1s3PZwzZjGk-36" connectable="0" vertex="1">
          <mxGeometry relative="1" as="geometry">
            <mxPoint x="1" as="offset" />
          </mxGeometry>
        </mxCell>
        <mxCell id="7puuVnWby1s3PZwzZjGk-38" value="" style="endArrow=classic;html=1;rounded=0;dashed=1;" parent="1" edge="1">
          <mxGeometry relative="1" as="geometry">
            <mxPoint x="280" y="370" as="sourcePoint" />
            <mxPoint x="100" y="370" as="targetPoint" />
          </mxGeometry>
        </mxCell>
        <mxCell id="7puuVnWby1s3PZwzZjGk-39" value="Credentials Displayed&amp;nbsp;" style="edgeLabel;resizable=0;html=1;align=center;verticalAlign=middle;strokeWidth=1;fillColor=none;" parent="7puuVnWby1s3PZwzZjGk-38" connectable="0" vertex="1">
          <mxGeometry relative="1" as="geometry">
            <mxPoint x="1" as="offset" />
          </mxGeometry>
        </mxCell>
        <mxCell id="7puuVnWby1s3PZwzZjGk-42" value="" style="endArrow=classic;html=1;rounded=0;dashed=1;" parent="1" edge="1">
          <mxGeometry relative="1" as="geometry">
            <mxPoint x="280" y="500" as="sourcePoint" />
            <mxPoint x="100" y="500" as="targetPoint" />
          </mxGeometry>
        </mxCell>
        <mxCell id="7puuVnWby1s3PZwzZjGk-43" value="Timer Starts" style="edgeLabel;resizable=0;html=1;align=center;verticalAlign=middle;strokeWidth=1;fillColor=none;" parent="7puuVnWby1s3PZwzZjGk-42" connectable="0" vertex="1">
          <mxGeometry relative="1" as="geometry">
            <mxPoint x="1" as="offset" />
          </mxGeometry>
        </mxCell>
        <mxCell id="7puuVnWby1s3PZwzZjGk-44" value="" style="endArrow=classic;html=1;rounded=0;dashed=1;" parent="1" edge="1">
          <mxGeometry relative="1" as="geometry">
            <mxPoint x="280" y="430" as="sourcePoint" />
            <mxPoint x="100" y="430" as="targetPoint" />
          </mxGeometry>
        </mxCell>
        <mxCell id="7puuVnWby1s3PZwzZjGk-45" value="Stopwatch Screen Displayed" style="edgeLabel;resizable=0;html=1;align=center;verticalAlign=middle;strokeWidth=1;fillColor=none;" parent="7puuVnWby1s3PZwzZjGk-44" connectable="0" vertex="1">
          <mxGeometry relative="1" as="geometry">
            <mxPoint x="1" as="offset" />
          </mxGeometry>
        </mxCell>
        <mxCell id="7puuVnWby1s3PZwzZjGk-46" value="" style="endArrow=classic;html=1;rounded=0;dashed=1;" parent="1" edge="1">
          <mxGeometry relative="1" as="geometry">
            <mxPoint x="280" y="570" as="sourcePoint" />
            <mxPoint x="110" y="570" as="targetPoint" />
          </mxGeometry>
        </mxCell>
        <mxCell id="7puuVnWby1s3PZwzZjGk-47" value="Timer Stops" style="edgeLabel;resizable=0;html=1;align=center;verticalAlign=middle;strokeWidth=1;fillColor=none;" parent="7puuVnWby1s3PZwzZjGk-46" connectable="0" vertex="1">
          <mxGeometry relative="1" as="geometry">
            <mxPoint x="1" as="offset" />
          </mxGeometry>
        </mxCell>
      </root>
    </mxGraphModel>
  </diagram>
</mxfile>
